# xmcd
#
# Track frame offsets: 
#        150
#        23325
#        41262
#        63565
#        77320
#        105562
#        124202
#        141747
#        166735
#        189522
#        214232
#        231512
#        247840
#        272212
#        285862
#
# Disc length: 4179 seconds
#
# Revision: 7
# Processed by: cddbd v1.5.2PL0 Copyright (c) Steve Scherf et al.
# Submitted via: ExactAudioCopy v0.99pb4
#
DISCID=c910510f
DTITLE=Hot Tuna - Hot Tuna
DYEAR=1996
DGENRE=Folk-Blues
TTITLE0=Hesitation Blues
TTITLE1=How Long Blues
TTITLE2=Uncle Sam Blues
TTITLE3=Don't You Leave Me Here
TTITLE4=Death Don't Have No Mercy
TTITLE5=Know You Rider
TTITLE6=Oh Lord, Search My Heart
TTITLE7=Winin' Boy Blues
TTITLE8=New Song (For the Morning)
TTITLE9=Mann's Fate
TTITLE10=Keep Your Lamps Trimmed and Burning
TTITLE11=Candy Man
TTITLE12=True Religion
TTITLE13=Belly Shadow
TTITLE14=Come Back Baby
EXTD=Jorma Kaukonen: vocals (ex tracks 10,14), acoustic guitar\nJack C
EXTD=asady: electric bass\nWill Scarlett: harmonica (3,4,6,8,9,11,12,1
EXTD=5]\nRecorded live by Allen Zentz at the New Orleans House, Berkel
EXTD=ey US-CA, 1969-09-16/24.\nProduced by Al Schmitt.\nTracks 1-10 or
EXTD=iginally issued as RCA LP 4352 (1970-05).\nTracks 11-15 mixed by 
EXTD=Mike Hartry - previously unreleased.\nReissue supervision: Paul Wi
EXTD=lliams\nDigital transfers: Mike Hartry\nAudio restoration: Bill L
EXTD=acey\nCD: RCA 66872 (1996-07-02), UPC 078636687223.
EXTT0=(trad. - arr. Kaukonen/Casady)
EXTT1=(Leroy Carr)
EXTT2=(trad. - arr. Kaukonen/Casady)
EXTT3=(Jelly Roll Morton)
EXTT4=(Rev. Gary Davis)
EXTT5=(trad. - arr. Kaukonen/Casady)
EXTT6=(Rev. Gary Davis)
EXTT7=(Jelly Roll Morton)
EXTT8=(Jorma Kaukonen)
EXTT9=(Jorma Kaukonen)
EXTT10=(Rev. Gary Davis)
EXTT11=(Rev. Gary Davis)
EXTT12=(trad. - arr. Jorma Kaukonen)
EXTT13=(Jorma Kaukonen)
EXTT14=(Lightnin' Hopkins)
PLAYORDER=
